<?xml version="1.0" encoding="utf-8"?>
<!-- Generator: Adobe Illustrator 19.2.0, SVG Export Plug-In . SVG Version: 6.00 Build 0)  -->
<svg version="1.1" id="Layer_1" xmlns="http://www.w3.org/2000/svg" xmlns:xlink="http://www.w3.org/1999/xlink" x="0px" y="0px"
	 width="128px" height="128px" viewBox="0 0 128 128" style="enable-background:new 0 0 128 128;" xml:space="preserve">
<path d="M64,10.8c-29.4,0-53.2,23.8-53.2,53.2s23.8,53.2,53.2,53.2s53.2-23.8,53.2-53.2S93.4,10.8,64,10.8z M80.8,40.7
	c4.8,0,8.7,3.9,8.7,8.7s-3.9,8.7-8.7,8.7c-4.8,0-8.7-3.9-8.7-8.7C72.1,44.6,76,40.7,80.8,40.7z M46.1,40.7c4.8,0,8.7,3.9,8.7,8.7
	s-3.9,8.7-8.7,8.7s-8.7-3.9-8.7-8.7C37.4,44.6,41.3,40.7,46.1,40.7z M94.8,80.1c-7.3,27-53.8,27-61.1,0c-0.5-1.9,0.6-3.8,2.5-4.3
	s3.8,0.6,4.3,2.5c5.4,20.1,42.1,20.1,47.5,0c0.5-1.9,2.4-3,4.3-2.5S95.3,78.2,94.8,80.1z"/>
</svg>
