<?xml version="1.0" encoding="utf-8"?>
<!-- Generator: Adobe Illustrator 19.2.0, SVG Export Plug-In . SVG Version: 6.00 Build 0)  -->
<svg version="1.1" id="Layer_1" xmlns="http://www.w3.org/2000/svg" xmlns:xlink="http://www.w3.org/1999/xlink" x="0px" y="0px"
	 width="128px" height="128px" viewBox="0 0 128 128" style="enable-background:new 0 0 128 128;" xml:space="preserve">
<path d="M63.9,10.6c-29.4,0-53.2,23.8-53.2,53.2S34.5,117,63.9,117c29.4,0,53.2-23.8,53.2-53.2S93.3,10.6,63.9,10.6z M37.2,53.8
	c0-4.8,3.9-8.7,8.7-8.7c4.8,0,8.7,3.9,8.7,8.7s-3.9,8.7-8.7,8.7C41.1,62.4,37.2,58.6,37.2,53.8z M78,88.8H48.9
	c-1.9,0-3.4-1.5-3.4-3.4c0-1.9,1.5-3.4,3.4-3.4H78c1.9,0,3.4,1.5,3.4,3.4C81.4,87.3,79.9,88.8,78,88.8z M80.6,62.4
	c-4.8,0-8.7-3.9-8.7-8.7c0-4.8,3.9-8.7,8.7-8.7c4.8,0,8.7,3.9,8.7,8.7C89.3,58.6,85.4,62.4,80.6,62.4z"/>
</svg>
