<?xml version="1.0" encoding="utf-8"?>
<!-- Generator: Adobe Illustrator 19.2.0, SVG Export Plug-In . SVG Version: 6.00 Build 0)  -->
<svg version="1.1" id="Layer_1" xmlns="http://www.w3.org/2000/svg" xmlns:xlink="http://www.w3.org/1999/xlink" x="0px" y="0px"
	 width="128px" height="128px" viewBox="0 0 128 128" style="enable-background:new 0 0 128 128;" xml:space="preserve">
<path d="M63.9,10.6c-29.4,0-53.2,23.8-53.2,53.2S34.5,117,63.9,117c29.4,0,53.2-23.8,53.2-53.2S93.3,10.6,63.9,10.6z M46,40.6
	c4.8,0,8.7,3.9,8.7,8.7S50.8,58,46,58s-8.7-3.9-8.7-8.7S41.2,40.6,46,40.6z M87.5,89.6c-0.7,0.5-1.4,0.8-2.2,0.8c-1,0-2-0.4-2.7-1.3
	c-4.4-5.4-11.9-8.6-20-8.6c-8.1,0-15.6,3.2-20,8.6c-1.2,1.5-3.4,1.7-4.9,0.5s-1.7-3.4-0.5-4.9c5.7-7,15.2-11.2,25.4-11.2
	c10.2,0,19.7,4.2,25.4,11.2C89.2,86.2,89,88.4,87.5,89.6z M80.7,57.9c-4.8,0-8.7-3.9-8.7-8.7c0-4.8,3.9-8.7,8.7-8.7s8.7,3.9,8.7,8.7
	C89.3,54.1,85.5,57.9,80.7,57.9z"/>
</svg>
