<?xml version="1.0" standalone="no"?>
<!DOCTYPE svg PUBLIC "-//W3C//DTD SVG 20010904//EN"
 "http://www.w3.org/TR/2001/REC-SVG-20010904/DTD/svg10.dtd">
<svg version="1.0" xmlns="http://www.w3.org/2000/svg"
 width="818.000000pt" height="818.000000pt" viewBox="0 0 818.000000 818.000000"
 preserveAspectRatio="xMidYMid meet">
<metadata>
Created by potrace 1.11, written by Peter Selinger 2001-2013
</metadata>
<g transform="translate(0.000000,818.000000) scale(0.100000,-0.100000)"
fill="#000000" stroke="none">
<path d="M7350 8098 c-168 -274 -500 -572 -905 -815 -512 -307 -1152 -541
-1935 -708 -70 -15 -171 -35 -200 -40 -193 -33 -495 -130 -733 -236 -96 -43
-310 -154 -372 -192 -265 -166 -401 -272 -585 -457 -214 -213 -352 -406 -494
-685 -22 -44 -41 -82 -41 -85 -1 -3 -6 -16 -12 -30 -113 -265 -186 -560 -213
-860 -14 -162 -15 -160 20 -108 17 25 58 74 92 108 287 287 836 527 1513 661
146 28 140 27 270 48 104 17 144 23 250 37 42 5 117 14 163 19 40 5 227 32
342 51 289 46 654 145 915 247 142 56 393 179 493 242 76 48 275 189 316 225
165 141 312 294 418 435 68 91 168 241 168 253 0 6 4 12 9 14 12 4 132 236
181 348 22 52 45 104 50 115 19 43 80 215 114 325 80 261 161 642 192 900 3
30 8 57 9 60 2 3 6 42 10 85 3 44 9 88 11 98 9 29 1 19 -46 -55z"/>
<path d="M5948 4841 c-142 -117 -378 -218 -738 -316 -90 -24 -202 -50 -260
-60 -19 -3 -51 -10 -70 -15 -34 -9 -385 -66 -465 -76 -22 -2 -94 -11 -160 -20
-66 -9 -140 -18 -165 -20 -25 -3 -56 -6 -70 -9 -14 -2 -47 -7 -75 -11 -27 -3
-59 -8 -70 -10 -11 -3 -38 -7 -60 -9 -22 -3 -62 -10 -90 -15 -27 -6 -63 -12
-80 -15 -38 -5 -86 -15 -105 -20 -8 -2 -28 -7 -45 -9 -16 -3 -91 -21 -165 -40
-733 -186 -1177 -550 -1433 -1176 -51 -124 -121 -352 -143 -465 -2 -11 -8 -42
-14 -70 -12 -60 -18 -99 -26 -145 -3 -19 -7 -42 -9 -50 -2 -8 -7 -46 -11 -85
-3 -38 -8 -72 -9 -75 -2 -3 -7 -50 -11 -105 -3 -55 -8 -116 -11 -135 -2 -19
-5 -186 -8 -370 -3 -287 -7 -372 -21 -436 -1 -6 -16 -53 -33 -105 -41 -121
-115 -268 -191 -377 -140 -203 -337 -387 -548 -512 -40 -23 -71 -44 -70 -45 3
-4 61 -12 128 -19 225 -24 611 -24 790 -1 19 3 55 7 80 10 40 5 85 12 184 30
129 25 301 76 431 130 666 275 1074 859 1180 1685 10 82 15 143 20 285 7 175
13 238 31 315 3 14 8 34 10 46 2 11 10 38 17 60 13 37 17 40 73 52 213 48 521
129 649 171 1054 343 1547 911 1610 1856 6 96 13 226 11 224 -1 0 -27 -22 -58
-48z"/>
</g>
</svg>
